<svg version="1" xmlns="http://www.w3.org/2000/svg" width="346.667" height="346.667" viewBox="0 0 260.000000 260.000000"><path d="M126.1 56.5c-16 4.5-25.4 14.2-29.2 30.1-3.1 12.7-1.9 20.1 5.2 32.4.8 1.4 1.6 2.7 1.9 3 .3.3 3 3.6 6 7.5 3 3.8 7 8.5 8.8 10.5 1.8 1.9 4.5 5.3 6 7.5s3.3 4.7 4.1 5.5c5.1 5.3 8.5 20.4 5.8 25.6-4.3 8.2-15.2 12.9-24.3 10.4-6.2-1.8-9.4-5.8-9.4-11.9 0-6.7 3.1-11 9.5-13.4 9.7-3.6 10-3.9 10.1-8.2.6-17.5-25.4-22.4-38.2-7.2-6.1 7.2-9.9 20.1-9.2 31.1 1.6 24.6 28.5 39.2 58.1 31.7 21.1-5.4 35.3-19.4 38.7-38 1.2-6.9.8-12.1-2.1-23-3-11.4-9-20.6-23.5-36.1-2.4-2.5-5.7-6.3-7.4-8.5-1.7-2.2-3.7-4.8-4.5-5.7-2.6-3.2-3.5-5.7-3.5-10.3 0-8.2 4.7-14.1 12.1-15.1 6.3-.9 10.5 1.4 11.8 6.4 1.5 5.2 1.5 5.4-1.9 10.1-1.7 2.3-2.8 4.6-2.5 5.1.3.5.1 1.9-.5 3-2.4 4.5 4.6 10.2 12.6 10.2 5.6 0 10-2.6 13.9-8.1 2.6-3.7 3-5.1 3-11.4 0-16.4-4.9-25.3-17.3-31.4-4.9-2.4-6.9-2.7-17.1-3-8.1-.2-13.2.2-17 1.2z"/></svg>